<svg width="12" height="12" viewBox="0 0 12 12" fill="none" xmlns="http://www.w3.org/2000/svg">
<g id="Frame">
<path id="Vector" d="M10.911 3.7155C10.865 3.64904 10.8036 3.59471 10.732 3.55718C10.6604 3.51965 10.5808 3.50003 10.5 3.5H3.6665L3.0895 2.115C3.01384 1.93261 2.88573 1.7768 2.72141 1.66731C2.55709 1.55782 2.36396 1.49959 2.1665 1.5H1V2.5H2.1665L4.5385 8.1925C4.57649 8.28358 4.64059 8.36138 4.72271 8.4161C4.80484 8.47082 4.90132 8.50001 5 8.5H9C9.2085 8.5 9.395 8.3705 9.4685 8.176L10.9685 4.176C10.9968 4.10031 11.0064 4.01888 10.9964 3.93868C10.9864 3.85848 10.9571 3.7819 10.911 3.7155ZM8.6535 7.5H5.3335L4.0835 4.5H9.7785L8.6535 7.5Z" fill="#383634"/>
<path id="Vector_2" d="M5.25 10.5C5.66421 10.5 6 10.1642 6 9.75C6 9.33579 5.66421 9 5.25 9C4.83579 9 4.5 9.33579 4.5 9.75C4.5 10.1642 4.83579 10.5 5.25 10.5Z" fill="#383634"/>
<path id="Vector_3" d="M8.75 10.5C9.16421 10.5 9.5 10.1642 9.5 9.75C9.5 9.33579 9.16421 9 8.75 9C8.33579 9 8 9.33579 8 9.75C8 10.1642 8.33579 10.5 8.75 10.5Z" fill="#383634"/>
</g>
</svg>
