<svg width="24" height="25" viewBox="0 0 24 25" fill="none" xmlns="http://www.w3.org/2000/svg">
<g id="Frame">
<path id="Vector" d="M10.5 21.5C11.3284 21.5 12 20.8284 12 20C12 19.1716 11.3284 18.5 10.5 18.5C9.67157 18.5 9 19.1716 9 20C9 20.8284 9.67157 21.5 10.5 21.5Z" fill="#4C7C7D"/>
<path id="Vector_2" d="M17.5 21.5C18.3284 21.5 19 20.8284 19 20C19 19.1716 18.3284 18.5 17.5 18.5C16.6716 18.5 16 19.1716 16 20C16 20.8284 16.6716 21.5 17.5 21.5Z" fill="#4C7C7D"/>
<path id="Vector_3" d="M21 7.50001H7.334L6.18 4.73001C6.02851 4.36515 5.77211 4.05348 5.4433 3.83451C5.11448 3.61553 4.72806 3.49911 4.333 3.50001H2V5.50001H4.334L9.077 16.885C9.232 17.257 9.597 17.5 10 17.5H18C18.417 17.5 18.79 17.241 18.937 16.852L21.937 8.85201C21.9932 8.7006 22.012 8.53786 21.9918 8.37763C21.9716 8.2174 21.913 8.06441 21.8211 7.93167C21.7291 7.79893 21.6064 7.69037 21.4634 7.61522C21.3205 7.54006 21.1615 7.50054 21 7.50001ZM17 13.5H15V15.5H13V13.5H11V11.5H13V9.50001H15V11.5H17V13.5Z" fill="#4C7C7D"/>
</g>
</svg>
