<svg width="12" height="12" viewBox="0 0 12 12" fill="none" xmlns="http://www.w3.org/2000/svg">
<g id="Frame">
<path id="Vector" d="M6 1C5.50555 1 5.0222 1.14662 4.61107 1.42133C4.19995 1.69603 3.87952 2.08648 3.6903 2.54329C3.50108 3.00011 3.45157 3.50277 3.54804 3.98773C3.6445 4.47268 3.8826 4.91814 4.23223 5.26777C4.58186 5.6174 5.02732 5.8555 5.51227 5.95196C5.99723 6.04843 6.49989 5.99892 6.95671 5.8097C7.41352 5.62048 7.80397 5.30005 8.07867 4.88893C8.35338 4.4778 8.5 3.99445 8.5 3.5C8.5 2.83696 8.23661 2.20107 7.76777 1.73223C7.29893 1.26339 6.66304 1 6 1ZM6 5C5.70333 5 5.41332 4.91203 5.16664 4.7472C4.91997 4.58238 4.72771 4.34811 4.61418 4.07403C4.50065 3.79994 4.47094 3.49834 4.52882 3.20736C4.5867 2.91639 4.72956 2.64912 4.93934 2.43934C5.14912 2.22956 5.41639 2.0867 5.70736 2.02882C5.99834 1.97094 6.29994 2.00065 6.57403 2.11418C6.84811 2.22771 7.08238 2.41997 7.2472 2.66664C7.41203 2.91332 7.5 3.20333 7.5 3.5C7.5 3.89782 7.34196 4.27936 7.06066 4.56066C6.77936 4.84196 6.39782 5 6 5ZM10.5 10.5V10C10.5 9.07174 10.1313 8.1815 9.47487 7.52513C8.8185 6.86875 7.92826 6.5 7 6.5H5C4.07174 6.5 3.1815 6.86875 2.52513 7.52513C1.86875 8.1815 1.5 9.07174 1.5 10V10.5H2.5V10C2.5 9.33696 2.76339 8.70107 3.23223 8.23223C3.70107 7.76339 4.33696 7.5 5 7.5H7C7.66304 7.5 8.29893 7.76339 8.76777 8.23223C9.23661 8.70107 9.5 9.33696 9.5 10V10.5H10.5Z" fill="#383634"/>
</g>
</svg>
