<svg width="13" height="13" viewBox="0 0 13 13" fill="none" xmlns="http://www.w3.org/2000/svg">
<g id="Frame">
<path id="Vector" d="M11.888 4.97197C11.8539 4.87169 11.7912 4.78357 11.7077 4.7185C11.6241 4.65343 11.5234 4.61425 11.4178 4.6058L8.32974 4.36042L6.99345 1.40238C6.9509 1.30711 6.88167 1.22619 6.79414 1.16939C6.70661 1.11259 6.60451 1.08233 6.50017 1.08228C6.39582 1.08222 6.29369 1.11236 6.2061 1.16907C6.11851 1.22577 6.0492 1.30662 6.00654 1.40184L4.67024 4.36042L1.5822 4.6058C1.47845 4.61402 1.37926 4.65196 1.2965 4.71507C1.21375 4.77819 1.15092 4.86381 1.11555 4.96169C1.08018 5.05957 1.07376 5.16558 1.09706 5.26701C1.12035 5.36845 1.17238 5.46103 1.24691 5.53367L3.52895 7.7583L2.72187 11.2531C2.69736 11.3589 2.70522 11.4696 2.74441 11.5709C2.78361 11.6722 2.85234 11.7593 2.94168 11.821C3.03102 11.8828 3.13685 11.9162 3.24543 11.917C3.35402 11.9179 3.46035 11.886 3.55062 11.8257L6.49999 9.85943L9.44937 11.8257C9.54163 11.8869 9.65045 11.9185 9.76117 11.916C9.87189 11.9136 9.97922 11.8773 10.0687 11.8121C10.1582 11.7468 10.2256 11.6558 10.2617 11.5511C10.2979 11.4464 10.3012 11.3332 10.2711 11.2266L9.28037 7.75992L11.7374 5.54884C11.8982 5.40367 11.9573 5.17726 11.888 4.97197Z" fill="#4C7C7D"/>
</g>
</svg>
